<mxfile host="app.diagrams.net" agent="Mozilla/5.0 (Windows NT 10.0; Win64; x64; rv:138.0) Gecko/20100101 Firefox/138.0" version="27.0.6">
  <diagram name="Seite-1" id="a_0hzJHnJxq_7q3SXprV">
    <mxGraphModel dx="1722" dy="932" grid="1" gridSize="10" guides="1" tooltips="1" connect="1" arrows="1" fold="1" page="1" pageScale="1" pageWidth="827" pageHeight="1169" math="0" shadow="0">
      <root>
        <mxCell id="0" />
        <mxCell id="1" parent="0" />
        <mxCell id="yX-IMmCzJm-knWDhz3Kd-60" value="" style="rounded=1;whiteSpace=wrap;html=1;fillColor=none;" vertex="1" parent="1">
          <mxGeometry y="80" width="890" height="650" as="geometry" />
        </mxCell>
        <mxCell id="yX-IMmCzJm-knWDhz3Kd-1" value="Client" style="sketch=0;outlineConnect=0;fontColor=#232F3E;gradientColor=none;fillColor=#232F3D;strokeColor=none;dashed=0;verticalLabelPosition=bottom;verticalAlign=top;align=center;html=1;fontSize=12;fontStyle=0;aspect=fixed;pointerEvents=1;shape=mxgraph.aws4.client;" vertex="1" parent="1">
          <mxGeometry x="360" y="800" width="78" height="76" as="geometry" />
        </mxCell>
        <mxCell id="yX-IMmCzJm-knWDhz3Kd-2" value="Reverse-Proxy" style="rounded=1;whiteSpace=wrap;html=1;" vertex="1" parent="1">
          <mxGeometry x="339" y="630" width="120" height="60" as="geometry" />
        </mxCell>
        <mxCell id="yX-IMmCzJm-knWDhz3Kd-3" value="" style="endArrow=classic;html=1;rounded=0;entryX=0.5;entryY=1;entryDx=0;entryDy=0;" edge="1" parent="1" source="yX-IMmCzJm-knWDhz3Kd-1" target="yX-IMmCzJm-knWDhz3Kd-2">
          <mxGeometry width="50" height="50" relative="1" as="geometry">
            <mxPoint x="340" y="800" as="sourcePoint" />
            <mxPoint x="390" y="750" as="targetPoint" />
          </mxGeometry>
        </mxCell>
        <mxCell id="yX-IMmCzJm-knWDhz3Kd-4" value="auth-service" style="rounded=1;whiteSpace=wrap;html=1;fillColor=#fff2cc;strokeColor=#d6b656;" vertex="1" parent="1">
          <mxGeometry x="339" y="470" width="120" height="60" as="geometry" />
        </mxCell>
        <mxCell id="yX-IMmCzJm-knWDhz3Kd-5" value="" style="endArrow=classic;html=1;rounded=0;entryX=0.5;entryY=1;entryDx=0;entryDy=0;" edge="1" parent="1" source="yX-IMmCzJm-knWDhz3Kd-2" target="yX-IMmCzJm-knWDhz3Kd-4">
          <mxGeometry width="50" height="50" relative="1" as="geometry">
            <mxPoint x="160" y="600" as="sourcePoint" />
            <mxPoint x="210" y="550" as="targetPoint" />
          </mxGeometry>
        </mxCell>
        <mxCell id="yX-IMmCzJm-knWDhz3Kd-22" value="redirect" style="edgeLabel;html=1;align=center;verticalAlign=middle;resizable=0;points=[];" vertex="1" connectable="0" parent="yX-IMmCzJm-knWDhz3Kd-5">
          <mxGeometry x="-0.1343" y="1" relative="1" as="geometry">
            <mxPoint as="offset" />
          </mxGeometry>
        </mxCell>
        <mxCell id="yX-IMmCzJm-knWDhz3Kd-6" value="user-service" style="rounded=1;whiteSpace=wrap;html=1;fillColor=#fff2cc;strokeColor=#d6b656;" vertex="1" parent="1">
          <mxGeometry x="180" y="470" width="120" height="60" as="geometry" />
        </mxCell>
        <mxCell id="yX-IMmCzJm-knWDhz3Kd-7" value="" style="endArrow=classic;html=1;rounded=0;exitX=0;exitY=0;exitDx=0;exitDy=0;entryX=0.5;entryY=1;entryDx=0;entryDy=0;" edge="1" parent="1" source="yX-IMmCzJm-knWDhz3Kd-2" target="yX-IMmCzJm-knWDhz3Kd-6">
          <mxGeometry width="50" height="50" relative="1" as="geometry">
            <mxPoint x="110" y="610" as="sourcePoint" />
            <mxPoint x="160" y="560" as="targetPoint" />
          </mxGeometry>
        </mxCell>
        <mxCell id="yX-IMmCzJm-knWDhz3Kd-21" value="redirect" style="edgeLabel;html=1;align=center;verticalAlign=middle;resizable=0;points=[];" vertex="1" connectable="0" parent="yX-IMmCzJm-knWDhz3Kd-7">
          <mxGeometry x="-0.1974" relative="1" as="geometry">
            <mxPoint as="offset" />
          </mxGeometry>
        </mxCell>
        <mxCell id="yX-IMmCzJm-knWDhz3Kd-8" value="" style="endArrow=classic;html=1;rounded=0;exitX=1;exitY=0;exitDx=0;exitDy=0;entryX=0.5;entryY=1;entryDx=0;entryDy=0;" edge="1" parent="1" source="yX-IMmCzJm-knWDhz3Kd-2" target="yX-IMmCzJm-knWDhz3Kd-9">
          <mxGeometry width="50" height="50" relative="1" as="geometry">
            <mxPoint x="660" y="660" as="sourcePoint" />
            <mxPoint x="710" y="610" as="targetPoint" />
          </mxGeometry>
        </mxCell>
        <mxCell id="yX-IMmCzJm-knWDhz3Kd-23" value="redirect" style="edgeLabel;html=1;align=center;verticalAlign=middle;resizable=0;points=[];" vertex="1" connectable="0" parent="yX-IMmCzJm-knWDhz3Kd-8">
          <mxGeometry x="-0.1999" y="2" relative="1" as="geometry">
            <mxPoint as="offset" />
          </mxGeometry>
        </mxCell>
        <mxCell id="yX-IMmCzJm-knWDhz3Kd-9" value="payment-service" style="rounded=1;whiteSpace=wrap;html=1;fillColor=#fff2cc;strokeColor=#d6b656;" vertex="1" parent="1">
          <mxGeometry x="500" y="470" width="120" height="60" as="geometry" />
        </mxCell>
        <mxCell id="yX-IMmCzJm-knWDhz3Kd-10" value="RabbitMQ" style="rounded=1;whiteSpace=wrap;html=1;fillColor=#f8cecc;strokeColor=#b85450;" vertex="1" parent="1">
          <mxGeometry x="339" y="310" width="120" height="60" as="geometry" />
        </mxCell>
        <mxCell id="yX-IMmCzJm-knWDhz3Kd-11" value="" style="endArrow=classic;html=1;rounded=0;exitX=0.5;exitY=0;exitDx=0;exitDy=0;entryX=0.5;entryY=1;entryDx=0;entryDy=0;" edge="1" parent="1" source="yX-IMmCzJm-knWDhz3Kd-4" target="yX-IMmCzJm-knWDhz3Kd-10">
          <mxGeometry width="50" height="50" relative="1" as="geometry">
            <mxPoint x="410" y="460" as="sourcePoint" />
            <mxPoint x="460" y="410" as="targetPoint" />
          </mxGeometry>
        </mxCell>
        <mxCell id="yX-IMmCzJm-knWDhz3Kd-29" value="publish" style="edgeLabel;html=1;align=center;verticalAlign=middle;resizable=0;points=[];" vertex="1" connectable="0" parent="yX-IMmCzJm-knWDhz3Kd-11">
          <mxGeometry x="0.0714" y="-1" relative="1" as="geometry">
            <mxPoint as="offset" />
          </mxGeometry>
        </mxCell>
        <mxCell id="yX-IMmCzJm-knWDhz3Kd-14" value="twint-mock" style="rounded=1;whiteSpace=wrap;html=1;fillColor=#f5f5f5;strokeColor=#666666;fontColor=#333333;" vertex="1" parent="1">
          <mxGeometry x="600" y="310" width="120" height="60" as="geometry" />
        </mxCell>
        <mxCell id="yX-IMmCzJm-knWDhz3Kd-15" value="" style="endArrow=classic;html=1;rounded=0;exitX=0.75;exitY=0;exitDx=0;exitDy=0;entryX=0.5;entryY=1;entryDx=0;entryDy=0;" edge="1" parent="1" source="yX-IMmCzJm-knWDhz3Kd-9" target="yX-IMmCzJm-knWDhz3Kd-14">
          <mxGeometry width="50" height="50" relative="1" as="geometry">
            <mxPoint x="570" y="430" as="sourcePoint" />
            <mxPoint x="671" y="545" as="targetPoint" />
          </mxGeometry>
        </mxCell>
        <mxCell id="yX-IMmCzJm-knWDhz3Kd-28" value="call" style="edgeLabel;html=1;align=center;verticalAlign=middle;resizable=0;points=[];" vertex="1" connectable="0" parent="yX-IMmCzJm-knWDhz3Kd-15">
          <mxGeometry x="-0.148" y="-2" relative="1" as="geometry">
            <mxPoint as="offset" />
          </mxGeometry>
        </mxCell>
        <mxCell id="yX-IMmCzJm-knWDhz3Kd-16" value="" style="endArrow=classic;html=1;rounded=0;exitX=0;exitY=0.5;exitDx=0;exitDy=0;entryX=1;entryY=0.5;entryDx=0;entryDy=0;" edge="1" parent="1" source="yX-IMmCzJm-knWDhz3Kd-14" target="yX-IMmCzJm-knWDhz3Kd-10">
          <mxGeometry width="50" height="50" relative="1" as="geometry">
            <mxPoint x="650" y="520" as="sourcePoint" />
            <mxPoint x="720" y="420" as="targetPoint" />
          </mxGeometry>
        </mxCell>
        <mxCell id="yX-IMmCzJm-knWDhz3Kd-30" value="publish" style="edgeLabel;html=1;align=center;verticalAlign=middle;resizable=0;points=[];" vertex="1" connectable="0" parent="yX-IMmCzJm-knWDhz3Kd-16">
          <mxGeometry x="-0.1429" relative="1" as="geometry">
            <mxPoint as="offset" />
          </mxGeometry>
        </mxCell>
        <mxCell id="yX-IMmCzJm-knWDhz3Kd-17" value="" style="endArrow=classic;startArrow=classic;html=1;rounded=0;exitX=0.5;exitY=0;exitDx=0;exitDy=0;entryX=0;entryY=0.75;entryDx=0;entryDy=0;" edge="1" parent="1" source="yX-IMmCzJm-knWDhz3Kd-6" target="yX-IMmCzJm-knWDhz3Kd-10">
          <mxGeometry width="50" height="50" relative="1" as="geometry">
            <mxPoint x="200" y="410" as="sourcePoint" />
            <mxPoint x="250" y="360" as="targetPoint" />
          </mxGeometry>
        </mxCell>
        <mxCell id="yX-IMmCzJm-knWDhz3Kd-26" value="subscribe" style="edgeLabel;html=1;align=center;verticalAlign=middle;resizable=0;points=[];" vertex="1" connectable="0" parent="yX-IMmCzJm-knWDhz3Kd-17">
          <mxGeometry x="-0.0371" y="2" relative="1" as="geometry">
            <mxPoint x="-16" y="27" as="offset" />
          </mxGeometry>
        </mxCell>
        <mxCell id="yX-IMmCzJm-knWDhz3Kd-18" value="" style="endArrow=classic;startArrow=classic;html=1;rounded=0;exitX=0.5;exitY=0;exitDx=0;exitDy=0;entryX=1;entryY=0.75;entryDx=0;entryDy=0;" edge="1" parent="1" source="yX-IMmCzJm-knWDhz3Kd-9" target="yX-IMmCzJm-knWDhz3Kd-10">
          <mxGeometry width="50" height="50" relative="1" as="geometry">
            <mxPoint x="310" y="525" as="sourcePoint" />
            <mxPoint x="409" y="410" as="targetPoint" />
          </mxGeometry>
        </mxCell>
        <mxCell id="yX-IMmCzJm-knWDhz3Kd-27" value="subscribe" style="edgeLabel;html=1;align=center;verticalAlign=middle;resizable=0;points=[];" vertex="1" connectable="0" parent="yX-IMmCzJm-knWDhz3Kd-18">
          <mxGeometry x="-0.0818" relative="1" as="geometry">
            <mxPoint as="offset" />
          </mxGeometry>
        </mxCell>
        <mxCell id="yX-IMmCzJm-knWDhz3Kd-19" value="" style="endArrow=classic;html=1;rounded=0;exitX=0;exitY=0.5;exitDx=0;exitDy=0;entryX=1;entryY=0.5;entryDx=0;entryDy=0;" edge="1" parent="1" source="yX-IMmCzJm-knWDhz3Kd-9" target="yX-IMmCzJm-knWDhz3Kd-4">
          <mxGeometry width="50" height="50" relative="1" as="geometry">
            <mxPoint x="960" y="590" as="sourcePoint" />
            <mxPoint x="1010" y="540" as="targetPoint" />
          </mxGeometry>
        </mxCell>
        <mxCell id="yX-IMmCzJm-knWDhz3Kd-24" value="call" style="edgeLabel;html=1;align=center;verticalAlign=middle;resizable=0;points=[];" vertex="1" connectable="0" parent="yX-IMmCzJm-knWDhz3Kd-19">
          <mxGeometry x="0.108" y="1" relative="1" as="geometry">
            <mxPoint as="offset" />
          </mxGeometry>
        </mxCell>
        <mxCell id="yX-IMmCzJm-knWDhz3Kd-20" value="" style="endArrow=classic;html=1;rounded=0;exitX=1;exitY=0.5;exitDx=0;exitDy=0;entryX=0;entryY=0.5;entryDx=0;entryDy=0;" edge="1" parent="1" source="yX-IMmCzJm-knWDhz3Kd-6" target="yX-IMmCzJm-knWDhz3Kd-4">
          <mxGeometry width="50" height="50" relative="1" as="geometry">
            <mxPoint x="671" y="620" as="sourcePoint" />
            <mxPoint x="630" y="620" as="targetPoint" />
          </mxGeometry>
        </mxCell>
        <mxCell id="yX-IMmCzJm-knWDhz3Kd-25" value="call" style="edgeLabel;html=1;align=center;verticalAlign=middle;resizable=0;points=[];" vertex="1" connectable="0" parent="yX-IMmCzJm-knWDhz3Kd-20">
          <mxGeometry x="-0.4066" y="-2" relative="1" as="geometry">
            <mxPoint as="offset" />
          </mxGeometry>
        </mxCell>
        <mxCell id="yX-IMmCzJm-knWDhz3Kd-31" value="" style="strokeWidth=2;html=1;shape=mxgraph.flowchart.database;whiteSpace=wrap;fillColor=#fff2cc;strokeColor=#d6b656;" vertex="1" parent="1">
          <mxGeometry x="170" y="510" width="30" height="30" as="geometry" />
        </mxCell>
        <mxCell id="yX-IMmCzJm-knWDhz3Kd-32" value="" style="strokeWidth=2;html=1;shape=mxgraph.flowchart.database;whiteSpace=wrap;fillColor=#fff2cc;strokeColor=#d6b656;" vertex="1" parent="1">
          <mxGeometry x="330" y="510" width="30" height="30" as="geometry" />
        </mxCell>
        <mxCell id="yX-IMmCzJm-knWDhz3Kd-33" value="" style="strokeWidth=2;html=1;shape=mxgraph.flowchart.database;whiteSpace=wrap;fillColor=#fff2cc;strokeColor=#d6b656;" vertex="1" parent="1">
          <mxGeometry x="490" y="510" width="30" height="30" as="geometry" />
        </mxCell>
        <mxCell id="yX-IMmCzJm-knWDhz3Kd-35" style="edgeStyle=orthogonalEdgeStyle;rounded=0;orthogonalLoop=1;jettySize=auto;html=1;entryX=0;entryY=0.5;entryDx=0;entryDy=0;fillColor=#dae8fc;strokeColor=#6c8ebf;" edge="1" parent="1" source="yX-IMmCzJm-knWDhz3Kd-34" target="yX-IMmCzJm-knWDhz3Kd-6">
          <mxGeometry relative="1" as="geometry">
            <Array as="points">
              <mxPoint x="100" y="500" />
            </Array>
          </mxGeometry>
        </mxCell>
        <mxCell id="yX-IMmCzJm-knWDhz3Kd-36" value="observe" style="edgeLabel;html=1;align=center;verticalAlign=middle;resizable=0;points=[];" vertex="1" connectable="0" parent="yX-IMmCzJm-knWDhz3Kd-35">
          <mxGeometry x="-0.5232" y="-3" relative="1" as="geometry">
            <mxPoint as="offset" />
          </mxGeometry>
        </mxCell>
        <mxCell id="yX-IMmCzJm-knWDhz3Kd-37" style="edgeStyle=orthogonalEdgeStyle;rounded=0;orthogonalLoop=1;jettySize=auto;html=1;entryX=0;entryY=0;entryDx=0;entryDy=0;fillColor=#dae8fc;strokeColor=#6c8ebf;" edge="1" parent="1" source="yX-IMmCzJm-knWDhz3Kd-34" target="yX-IMmCzJm-knWDhz3Kd-4">
          <mxGeometry relative="1" as="geometry" />
        </mxCell>
        <mxCell id="yX-IMmCzJm-knWDhz3Kd-34" value="promtail" style="rounded=1;whiteSpace=wrap;html=1;fillColor=#dae8fc;strokeColor=#6c8ebf;" vertex="1" parent="1">
          <mxGeometry x="40" y="360" width="120" height="60" as="geometry" />
        </mxCell>
        <mxCell id="yX-IMmCzJm-knWDhz3Kd-39" style="edgeStyle=orthogonalEdgeStyle;rounded=0;orthogonalLoop=1;jettySize=auto;html=1;entryX=0.596;entryY=0.002;entryDx=0;entryDy=0;entryPerimeter=0;fillColor=#dae8fc;strokeColor=#6c8ebf;" edge="1" parent="1" source="yX-IMmCzJm-knWDhz3Kd-34" target="yX-IMmCzJm-knWDhz3Kd-9">
          <mxGeometry relative="1" as="geometry" />
        </mxCell>
        <mxCell id="yX-IMmCzJm-knWDhz3Kd-42" value="&lt;div&gt;observe&lt;/div&gt;" style="edgeLabel;html=1;align=center;verticalAlign=middle;resizable=0;points=[];" vertex="1" connectable="0" parent="yX-IMmCzJm-knWDhz3Kd-39">
          <mxGeometry x="-0.7251" relative="1" as="geometry">
            <mxPoint as="offset" />
          </mxGeometry>
        </mxCell>
        <mxCell id="yX-IMmCzJm-knWDhz3Kd-43" value="loki" style="rounded=1;whiteSpace=wrap;html=1;fillColor=#dae8fc;strokeColor=#6c8ebf;" vertex="1" parent="1">
          <mxGeometry x="40" y="230" width="120" height="60" as="geometry" />
        </mxCell>
        <mxCell id="yX-IMmCzJm-knWDhz3Kd-44" value="" style="endArrow=classic;html=1;rounded=0;exitX=0.5;exitY=0;exitDx=0;exitDy=0;entryX=0.5;entryY=1;entryDx=0;entryDy=0;" edge="1" parent="1" source="yX-IMmCzJm-knWDhz3Kd-34" target="yX-IMmCzJm-knWDhz3Kd-43">
          <mxGeometry width="50" height="50" relative="1" as="geometry">
            <mxPoint x="90" y="380" as="sourcePoint" />
            <mxPoint x="140" y="330" as="targetPoint" />
          </mxGeometry>
        </mxCell>
        <mxCell id="yX-IMmCzJm-knWDhz3Kd-47" value="store" style="edgeLabel;html=1;align=center;verticalAlign=middle;resizable=0;points=[];" vertex="1" connectable="0" parent="yX-IMmCzJm-knWDhz3Kd-44">
          <mxGeometry x="-0.0163" y="-1" relative="1" as="geometry">
            <mxPoint as="offset" />
          </mxGeometry>
        </mxCell>
        <mxCell id="yX-IMmCzJm-knWDhz3Kd-49" style="edgeStyle=orthogonalEdgeStyle;rounded=0;orthogonalLoop=1;jettySize=auto;html=1;entryX=1;entryY=0.5;entryDx=0;entryDy=0;fillColor=#d5e8d4;strokeColor=#82b366;" edge="1" parent="1" source="yX-IMmCzJm-knWDhz3Kd-48" target="yX-IMmCzJm-knWDhz3Kd-9">
          <mxGeometry relative="1" as="geometry">
            <Array as="points">
              <mxPoint x="810" y="500" />
            </Array>
          </mxGeometry>
        </mxCell>
        <mxCell id="yX-IMmCzJm-knWDhz3Kd-50" value="call" style="edgeLabel;html=1;align=center;verticalAlign=middle;resizable=0;points=[];" vertex="1" connectable="0" parent="yX-IMmCzJm-knWDhz3Kd-49">
          <mxGeometry x="-0.0421" relative="1" as="geometry">
            <mxPoint as="offset" />
          </mxGeometry>
        </mxCell>
        <mxCell id="yX-IMmCzJm-knWDhz3Kd-51" style="edgeStyle=orthogonalEdgeStyle;rounded=0;orthogonalLoop=1;jettySize=auto;html=1;entryX=1;entryY=0;entryDx=0;entryDy=0;fillColor=#d5e8d4;strokeColor=#82b366;" edge="1" parent="1" source="yX-IMmCzJm-knWDhz3Kd-48" target="yX-IMmCzJm-knWDhz3Kd-4">
          <mxGeometry relative="1" as="geometry">
            <Array as="points">
              <mxPoint x="459" y="400" />
            </Array>
          </mxGeometry>
        </mxCell>
        <mxCell id="yX-IMmCzJm-knWDhz3Kd-48" value="prometheus" style="rounded=1;whiteSpace=wrap;html=1;fillColor=#d5e8d4;strokeColor=#82b366;" vertex="1" parent="1">
          <mxGeometry x="750" y="360" width="120" height="60" as="geometry" />
        </mxCell>
        <mxCell id="yX-IMmCzJm-knWDhz3Kd-53" style="edgeStyle=orthogonalEdgeStyle;rounded=0;orthogonalLoop=1;jettySize=auto;html=1;entryX=0.287;entryY=0.04;entryDx=0;entryDy=0;entryPerimeter=0;fillColor=#d5e8d4;strokeColor=#82b366;" edge="1" parent="1" source="yX-IMmCzJm-knWDhz3Kd-48" target="yX-IMmCzJm-knWDhz3Kd-6">
          <mxGeometry relative="1" as="geometry">
            <Array as="points">
              <mxPoint x="214" y="400" />
            </Array>
          </mxGeometry>
        </mxCell>
        <mxCell id="yX-IMmCzJm-knWDhz3Kd-54" value="call" style="edgeLabel;html=1;align=center;verticalAlign=middle;resizable=0;points=[];" vertex="1" connectable="0" parent="yX-IMmCzJm-knWDhz3Kd-53">
          <mxGeometry x="-0.8397" y="-1" relative="1" as="geometry">
            <mxPoint as="offset" />
          </mxGeometry>
        </mxCell>
        <mxCell id="yX-IMmCzJm-knWDhz3Kd-55" value="grafana" style="rounded=1;whiteSpace=wrap;html=1;" vertex="1" parent="1">
          <mxGeometry x="414" y="110" width="120" height="60" as="geometry" />
        </mxCell>
        <mxCell id="yX-IMmCzJm-knWDhz3Kd-56" value="" style="endArrow=classic;html=1;rounded=0;exitX=0;exitY=0.75;exitDx=0;exitDy=0;entryX=1;entryY=0;entryDx=0;entryDy=0;" edge="1" parent="1" source="yX-IMmCzJm-knWDhz3Kd-55" target="yX-IMmCzJm-knWDhz3Kd-43">
          <mxGeometry width="50" height="50" relative="1" as="geometry">
            <mxPoint x="320" y="190" as="sourcePoint" />
            <mxPoint x="370" y="140" as="targetPoint" />
          </mxGeometry>
        </mxCell>
        <mxCell id="yX-IMmCzJm-knWDhz3Kd-57" value="observe" style="edgeLabel;html=1;align=center;verticalAlign=middle;resizable=0;points=[];" vertex="1" connectable="0" parent="yX-IMmCzJm-knWDhz3Kd-56">
          <mxGeometry x="-0.1947" y="-3" relative="1" as="geometry">
            <mxPoint as="offset" />
          </mxGeometry>
        </mxCell>
        <mxCell id="yX-IMmCzJm-knWDhz3Kd-58" value="" style="endArrow=classic;html=1;rounded=0;exitX=1;exitY=0.75;exitDx=0;exitDy=0;entryX=0.5;entryY=0;entryDx=0;entryDy=0;" edge="1" parent="1" source="yX-IMmCzJm-knWDhz3Kd-55" target="yX-IMmCzJm-knWDhz3Kd-48">
          <mxGeometry width="50" height="50" relative="1" as="geometry">
            <mxPoint x="780" y="240" as="sourcePoint" />
            <mxPoint x="830" y="190" as="targetPoint" />
          </mxGeometry>
        </mxCell>
        <mxCell id="yX-IMmCzJm-knWDhz3Kd-59" value="observe" style="edgeLabel;html=1;align=center;verticalAlign=middle;resizable=0;points=[];" vertex="1" connectable="0" parent="yX-IMmCzJm-knWDhz3Kd-58">
          <mxGeometry x="-0.3761" y="-2" relative="1" as="geometry">
            <mxPoint as="offset" />
          </mxGeometry>
        </mxCell>
        <mxCell id="yX-IMmCzJm-knWDhz3Kd-61" value="cadvisor" style="rounded=1;whiteSpace=wrap;html=1;" vertex="1" parent="1">
          <mxGeometry x="650" y="110" width="120" height="60" as="geometry" />
        </mxCell>
        <mxCell id="yX-IMmCzJm-knWDhz3Kd-62" value="" style="endArrow=classic;html=1;rounded=0;exitX=1;exitY=0.5;exitDx=0;exitDy=0;entryX=0;entryY=0.5;entryDx=0;entryDy=0;" edge="1" parent="1" source="yX-IMmCzJm-knWDhz3Kd-55" target="yX-IMmCzJm-knWDhz3Kd-61">
          <mxGeometry width="50" height="50" relative="1" as="geometry">
            <mxPoint x="540" y="140" as="sourcePoint" />
            <mxPoint x="590" y="90" as="targetPoint" />
          </mxGeometry>
        </mxCell>
        <mxCell id="yX-IMmCzJm-knWDhz3Kd-63" value="observe" style="edgeLabel;html=1;align=center;verticalAlign=middle;resizable=0;points=[];" vertex="1" connectable="0" parent="yX-IMmCzJm-knWDhz3Kd-62">
          <mxGeometry x="-0.2044" relative="1" as="geometry">
            <mxPoint as="offset" />
          </mxGeometry>
        </mxCell>
        <mxCell id="yX-IMmCzJm-knWDhz3Kd-64" value="" style="endArrow=classic;html=1;rounded=0;exitX=1;exitY=0.5;exitDx=0;exitDy=0;entryX=0.993;entryY=0.089;entryDx=0;entryDy=0;entryPerimeter=0;" edge="1" parent="1" source="yX-IMmCzJm-knWDhz3Kd-61" target="yX-IMmCzJm-knWDhz3Kd-60">
          <mxGeometry width="50" height="50" relative="1" as="geometry">
            <mxPoint x="910" y="160" as="sourcePoint" />
            <mxPoint x="960" y="110" as="targetPoint" />
          </mxGeometry>
        </mxCell>
        <mxCell id="yX-IMmCzJm-knWDhz3Kd-65" value="observe" style="edgeLabel;html=1;align=center;verticalAlign=middle;resizable=0;points=[];" vertex="1" connectable="0" parent="yX-IMmCzJm-knWDhz3Kd-64">
          <mxGeometry x="-0.0781" y="1" relative="1" as="geometry">
            <mxPoint as="offset" />
          </mxGeometry>
        </mxCell>
        <mxCell id="yX-IMmCzJm-knWDhz3Kd-66" value="Cluster" style="text;html=1;align=center;verticalAlign=middle;whiteSpace=wrap;rounded=0;" vertex="1" parent="1">
          <mxGeometry x="50" y="80" width="60" height="30" as="geometry" />
        </mxCell>
      </root>
    </mxGraphModel>
  </diagram>
</mxfile>
